<svg version="1.1"
	 xmlns="http://www.w3.org/2000/svg" xmlns:xlink="http://www.w3.org/1999/xlink" xmlns:a="http://ns.adobe.com/AdobeSVGViewerExtensions/3.0/"
	 x="0px" y="0px" viewBox="0 0 68.4 45.4" style="enable-background:new 0 0 68.4 45.4;"
	 xml:space="preserve">
<path class="st0" d="M41.3,19.5c0.1,0,0.2,0,0.3,0c0,1.3-0.1,2.7,0,4c0.9,12,11.8,22.1,23.8,21.9c1,0,2-1,3.1-1.6
	c-0.9-0.6-1.7-1.4-2.6-1.7c-1.9-0.6-3.9-0.8-5.8-1.5c-5-1.8-8-6.7-8-12c0-5.6,4.6-4.2,7.5-5.2c4.7-1.6,7.8-5.6,7.8-11
	c0-4.5-0.8-8.7-5.7-10.7c-8.4-3.5-17.3,1-19.4,9.8C41.7,14.2,41.6,16.9,41.3,19.5z"/>
<path class="st0" d="M26.6,42.6c-1.3-0.4-2.7-0.8-4-1.3c-3-1.3-6.9-1.9-8.6-4.2c-2.1-2.9-2.8-7.2-3.2-10.9c-0.1-0.8,4-2.2,6.2-3
	c4.8-1.8,7.8-4.9,8-10.2c0.2-4.7-0.2-9.1-5.1-11.5C12.2-2.4,2.1,2.1,0.7,10.5c-0.9,5.5-1,11.3,0,16.8C2.7,38.2,16.7,46.9,26.6,42.6z
	"/>
<path class="st1" d="M41.3,19.5c0.3-2.6,0.5-5.3,1.1-7.9c2.1-8.8,11-13.3,19.4-9.8c4.8,2,5.7,6.2,5.7,10.7c0,5.3-3.1,9.4-7.8,11
	c-2.9,1-7.5-0.4-7.5,5.2c0,5.3,3,10.3,8,12c1.9,0.7,3.9,0.9,5.8,1.5c1,0.3,1.7,1.1,2.6,1.7c-1,0.5-2,1.6-3.1,1.6
	c-12,0.2-22.9-9.9-23.8-21.9c-0.1-1.3,0-2.7,0-4C41.5,19.5,41.4,19.5,41.3,19.5z"/>
<path class="st1" d="M26.6,42.6c-9.9,4.3-23.9-4.5-25.9-15.4c-1-5.4-0.9-11.3,0-16.8C2.1,2.1,12.2-2.4,19.9,1.4
	c4.8,2.4,5.2,6.8,5.1,11.5c-0.2,5.4-3.1,8.5-8,10.2c-2.3,0.8-6.3,2.2-6.2,3c0.3,3.8,1,8,3.2,10.9c1.7,2.3,5.6,2.9,8.6,4.2
	C23.8,41.8,25.2,42.2,26.6,42.6z"/>
</svg>
